<svg width="175" height="175" viewBox="0 0 175 175" fill="none" xmlns="http://www.w3.org/2000/svg">
<rect width="175" height="175" rx="50" fill="#F2F2F2"/>
<path d="M26.3573 70.3281C27.9376 72.657 29.3749 76.2954 32.2241 77.3004C33.8845 77.8854 36.4791 77.1004 37.6912 75.9374C38.0644 75.5794 38.5357 74.9044 39.1053 73.9124C39.7506 72.789 40.4002 71.6687 41.0539 70.5513C42.0009 68.9278 42.8531 67.1105 43.7833 65.3986C48.0747 57.4979 52.3787 49.6042 56.6954 41.7175C57.735 39.8161 58.1916 37.8556 56.4976 36.1205C55.3339 34.9308 52.3626 34.9497 50.677 35.034C43.9874 35.373 37.3145 36.4343 31.172 39.2244C27.2229 41.0184 23.609 43.3312 20.3305 46.1627C18.3229 47.8979 17.1445 48.7907 16.3575 50.8711C16.1576 51.4018 16.2417 52.044 16.2375 52.6168C16.2312 53.0211 16.0271 53.3875 16.0018 53.8002C15.964 54.4088 16.5911 55.5206 16.9278 56.0449C20.0113 60.8446 23.1545 65.6056 26.3573 70.3281Z" stroke="black" stroke-width="2"/>
<path d="M134.339 69.7867C135.464 71.9577 136.908 73.5896 139.158 74.6274C141.161 75.5544 144.019 75.4684 145.967 74.3814C148.606 72.9074 150.02 70.3152 152.042 67.1924C153.928 64.2823 155.792 61.5575 157.667 58.7443C158.44 57.5861 159.185 55.8721 159.17 54.3791C159.142 51.5027 158.682 49.2538 156.443 47.2428C152.399 43.6083 147.858 40.7965 142.819 38.8072C141.792 38.4029 140.572 38.0134 139.446 37.6259C136.184 36.4994 126.633 34.2757 123.84 36.3014C123.299 36.6952 122.641 37.0448 122.23 37.548C121.401 38.5658 120.858 39.7127 120.602 40.9888C120.336 42.3154 120.631 44.2042 121.254 45.3392C123.388 49.2327 125.364 53.2167 127.521 57.0955C129.855 61.2929 132.128 65.5233 134.339 69.7867Z" stroke="black" stroke-width="2"/>
<path d="M64.6266 101.846C66.3879 104.188 69.1487 103.825 70.8406 101.616C74.7772 96.4804 78.6832 91.3214 82.5592 86.1394C83.6512 84.6824 84.4222 83.5114 84.8742 82.6274C91.5152 69.633 81.8522 54.3264 67.3222 54.6423C52.7307 54.9603 43.5032 70.61 50.9862 83.4524C51.6077 84.5194 52.3934 85.6754 53.3432 86.9214C55.8936 90.2604 59.6548 95.2354 64.6266 101.846Z" stroke="black" stroke-width="2"/>
<path d="M113.439 80.8544C115.322 80.7324 117.079 79.8594 118.324 78.4274C119.568 76.9944 120.198 75.1204 120.075 73.2166C119.952 71.3129 119.086 69.5355 117.668 68.2755C116.249 67.0155 114.395 66.376 112.512 66.4979C110.629 66.6197 108.872 67.4929 107.627 68.9252C106.383 70.3575 105.753 72.2317 105.876 74.1354C105.999 76.0394 106.865 77.8164 108.283 79.0764C109.702 80.3364 111.556 80.9764 113.439 80.8544Z" stroke="black" stroke-width="2"/>
<path d="M85.1482 123.423C85.5922 123.992 86.3642 124.436 86.9492 124.822C87.0132 124.865 87.0642 124.924 87.0982 124.993C87.1322 125.062 87.1462 125.139 87.1412 125.215C86.8232 129.471 84.6512 132.813 80.4642 134.053C77.7782 134.847 74.5842 133.956 72.5872 132.048C71.8152 131.311 71.0069 130.094 70.0936 129.585C68.044 128.439 65.3546 130.004 65.321 132.373C65.3104 133.213 65.7734 134.247 66.2784 134.887C68.6395 137.869 71.5982 139.734 75.1542 140.482C80.5982 141.625 86.8422 139.572 90.1602 135.087C90.1782 135.063 90.2022 135.043 90.2282 135.03C90.2552 135.016 90.2842 135.009 90.3142 135.008C90.3442 135.007 90.3742 135.014 90.4012 135.026C90.4292 135.039 90.4532 135.057 90.4722 135.081C96.4292 142.417 107.264 142.75 113.661 135.767C114.19 135.19 114.899 134.253 115.128 133.619C116.161 130.768 113.394 128.395 110.718 129.501C109.569 129.974 108.773 131.526 107.889 132.278C104.844 134.868 100.783 135.003 97.5212 132.788C95.2772 131.263 93.9802 129.018 93.6302 126.051C93.5872 125.679 93.6002 125.306 93.6702 124.931C93.6772 124.897 93.6912 124.864 93.7112 124.836C93.7322 124.808 93.7582 124.784 93.7882 124.767C94.6402 124.292 95.4272 123.583 96.1492 122.638C98.4932 119.572 100.251 117.214 101.421 115.563C101.644 115.248 101.792 114.918 101.867 114.573C102.412 112.078 100.932 110.195 98.4602 110.164C96.1032 110.133 91.0602 110.134 83.3322 110.168C81.8122 110.176 80.6492 110.136 79.7502 111.059C78.3142 112.531 78.2172 114.145 79.4602 115.9C80.7172 117.674 82.6132 120.182 85.1482 123.423Z" stroke="black" stroke-width="2"/>
<path d="M67.9409 80.4334C69.0267 80.2714 70.0978 80.2314 71.0532 79.6334C75.9062 76.5884 75.4432 69.612 70.0242 67.4958C66.3458 66.0597 62.1224 68.6202 61.2449 72.3221C61.106 72.9033 61.1691 73.5645 61.1607 74.1924C61.1165 77.4394 64.5866 80.9384 67.9409 80.4334Z" stroke="black" stroke-width="2"/>
<path d="M32.2239 77.3004C29.3747 76.2954 27.9374 72.657 26.357 70.3281C23.1543 65.6056 20.0111 60.8446 16.9275 56.0449C16.5908 55.5206 15.9637 54.4088 16.0016 53.8002C16.0269 53.3875 16.231 53.0211 16.2373 52.6168C16.2415 52.044 16.1573 51.4018 16.3573 50.8711C17.1443 48.7907 18.3227 47.8979 20.3302 46.1627C23.6088 43.3312 27.2226 41.0184 31.1718 39.2244C37.3143 36.4343 43.9871 35.373 50.6768 35.034C52.3624 34.9497 55.3337 34.9308 56.4974 36.1205C58.1914 37.8556 57.7347 39.8161 56.6952 41.7175C52.3785 49.6042 48.0745 57.4979 43.783 65.3986C42.8529 67.1105 42.0007 68.9278 41.0537 70.5513C40.4 71.6687 39.7504 72.789 39.1051 73.9124C38.5355 74.9044 38.0642 75.5794 37.691 75.9374C36.4789 77.1004 33.8842 77.8854 32.2239 77.3004Z" fill="black"/>
<path d="M139.157 74.6284C136.908 73.5899 135.464 71.9579 134.339 69.7869C132.128 65.5236 129.855 61.2931 127.521 57.0957C125.364 53.217 123.388 49.2329 121.254 45.3395C120.631 44.2045 120.336 42.3156 120.601 40.989C120.858 39.713 121.401 38.566 122.23 37.5483C122.641 37.045 123.299 36.6954 123.84 36.3017C126.632 34.276 136.184 36.4996 139.446 37.6262C140.572 38.0136 141.792 38.4032 142.819 38.8075C147.858 40.7967 152.399 43.6085 156.442 47.243C158.681 49.254 159.142 51.5029 159.17 54.3793C159.184 55.8723 158.439 57.5864 157.667 58.7445C155.792 61.5578 153.928 64.2826 152.042 67.1927C150.02 70.3155 148.606 72.9076 145.967 74.3814C144.018 75.4684 141.161 75.5544 139.157 74.6284Z" fill="black"/>
<path d="M70.8405 101.617C69.1486 103.826 66.3877 104.188 64.6264 101.846C59.6546 95.2364 55.8934 90.2614 53.343 86.9214C52.3932 85.6764 51.6076 84.5204 50.9861 83.4534C43.5031 70.6103 52.7306 54.9605 67.322 54.6425C81.8522 54.3267 91.5152 69.6332 84.8742 82.6274C84.4222 83.5124 83.6512 84.6824 82.5592 86.1404C78.6832 91.3214 74.7772 96.4804 70.8405 101.617ZM67.9407 80.4334C69.0266 80.2714 70.0977 80.2314 71.053 79.6334C75.9052 76.5884 75.4422 69.6122 70.024 67.4959C66.3456 66.0598 62.1222 68.6204 61.2447 72.3222C61.1059 72.9034 61.169 73.5646 61.1606 74.1924C61.1164 77.4394 64.5864 80.9384 67.9407 80.4334Z" fill="black"/>
<path d="M105.876 74.1354C106.132 78.1004 109.518 81.1084 113.439 80.8544C117.361 80.6004 120.332 77.1814 120.075 73.2168C119.819 69.2524 116.433 66.2443 112.512 66.498C108.59 66.7518 105.619 70.1713 105.876 74.1354Z" fill="black"/>
<path d="M86.9492 124.822C86.3643 124.437 85.5923 123.992 85.1483 123.424C82.6133 120.182 80.7173 117.674 79.4603 115.9C78.2173 114.145 78.3133 112.531 79.7503 111.059C80.6493 110.137 81.8123 110.177 83.3323 110.168C91.0603 110.134 96.1033 110.133 98.4603 110.164C100.932 110.195 102.412 112.078 101.867 114.573C101.792 114.919 101.644 115.249 101.42 115.563C100.25 117.214 98.4933 119.572 96.1493 122.638C95.4273 123.583 94.6403 124.293 93.7883 124.767C93.7583 124.784 93.7323 124.808 93.7113 124.836C93.6912 124.864 93.6772 124.897 93.6702 124.931C93.6003 125.306 93.5873 125.68 93.6303 126.052C93.9803 129.018 95.2773 131.263 97.5213 132.788C100.783 135.003 104.844 134.868 107.889 132.278C108.773 131.526 109.568 129.975 110.717 129.501C113.394 128.395 116.161 130.768 115.128 133.62C114.899 134.253 114.19 135.19 113.661 135.767C107.264 142.75 96.4293 142.417 90.4723 135.081C90.4533 135.058 90.4293 135.039 90.4013 135.026C90.3743 135.014 90.3443 135.008 90.3143 135.008C90.2843 135.009 90.2553 135.016 90.2283 135.03C90.2013 135.044 90.1783 135.063 90.1603 135.087C86.8423 139.572 80.5983 141.626 75.1543 140.482C71.5983 139.734 68.6395 137.869 66.2784 134.887C65.7734 134.247 65.3104 133.213 65.3209 132.373C65.3546 130.004 68.044 128.439 70.0936 129.585C71.0069 130.095 71.8152 131.312 72.5872 132.049C74.5842 133.956 77.7782 134.847 80.4632 134.053C84.6512 132.813 86.8233 129.471 87.1403 125.216C87.1463 125.139 87.1323 125.062 87.0983 124.993C87.0643 124.924 87.0132 124.865 86.9492 124.822Z" fill="black"/>
</svg>
